<svg width="111" height="111" viewBox="0 0 111 111" fill="none" xmlns="http://www.w3.org/2000/svg">
<path d="M7.26562 77.9683C7.48381 77.9136 7.66819 78.0321 7.79492 78.1753C8.22264 78.6585 8.75856 79.1704 9.11914 79.7681V79.769C9.70108 80.7396 10.2009 81.7587 10.6846 82.771L11.1416 83.6968C13.4804 88.2806 16.5933 92.2031 20.8877 95.1606C21.3843 95.5031 21.8589 95.8751 22.3262 96.2427C22.7953 96.6117 23.2566 96.9766 23.7363 97.314L23.915 97.4321C24.34 97.6976 24.8163 97.8922 25.3125 98.1284C25.9124 98.414 26.5905 98.6919 27.2041 99.0005L27.293 99.0571C27.3766 99.1218 27.4447 99.208 27.4912 99.2847C27.5246 99.3398 27.5549 99.4027 27.5742 99.4673C27.5922 99.5275 27.6079 99.6129 27.5869 99.7026C27.5494 99.8645 27.4232 99.9728 27.3447 100.033C27.2632 100.095 27.1493 100.163 27.0957 100.199C27.0102 100.256 26.9159 100.269 26.8525 100.272C26.7865 100.275 26.7224 100.268 26.6729 100.26C25.1252 100.043 23.4536 99.9349 22.0225 98.8862C21.1906 98.2772 20.3358 97.6967 19.4775 97.1128C18.6207 96.5299 17.7601 95.9435 16.9219 95.3267V95.3257C14.9138 93.8461 13.1782 92.0817 11.8906 89.9009C11.5958 89.4009 11.2559 88.9216 10.9033 88.4478C9.54624 86.6263 8.62231 84.5967 7.89941 82.481L7.37695 80.9077C7.20606 80.3831 7.03714 79.8586 6.86621 79.3374L6.85352 79.3003V78.4429H7.09961L6.87695 78.3384C6.94761 78.1873 7.06824 78.0179 7.26562 77.9683Z" fill="#251F21" stroke="#251F21" stroke-width="0.5"/>
<mask id="path-2-outside-1_37_1159" maskUnits="userSpaceOnUse" x="15.748" y="22.9258" width="75" height="73" fill="black">
<rect fill="white" x="15.748" y="22.9258" width="75" height="73"/>
<path d="M27.8471 34.3772C27.7271 33.8767 27.5209 33.1251 27.3729 32.3622C27.0748 30.8289 27.1929 29.3425 28.0233 27.9742C28.7712 26.7408 30.4788 25.9555 31.6784 26.3622C32.1395 26.5178 32.5706 26.8477 32.9305 27.1888C33.5284 27.7549 34.0589 28.3941 34.6193 29.0051C34.6624 28.9545 34.6999 28.9301 34.698 28.9077C34.5293 27.1588 35.4178 25.8449 36.4768 24.6059C36.9567 24.0436 37.5827 23.8355 38.3119 23.9611C40.0645 24.261 41.6989 24.8721 43.1422 25.9142C44.2031 26.679 45.2509 27.4737 46.235 28.336C48.9491 30.7127 51.5883 33.1551 53.7963 36.0473C57.1759 40.4727 60.3211 45.0575 63.3521 49.7248C63.4908 49.9366 63.6313 50.1484 63.8619 50.3227C63.8113 50.184 63.7607 50.0472 63.7101 49.9085C62.9734 47.8429 62.2199 45.781 61.5039 43.7079C60.8591 41.841 60.8572 39.9273 61.2377 38.0116C61.6838 35.7773 63.234 34.4259 65.502 34.1935C68.1918 33.9161 70.4111 34.8551 72.1112 36.8945C73.4157 38.4596 74.6322 40.1053 75.785 41.7867C79.3501 46.9863 82.3773 52.5083 85.2695 58.0996C86.3079 60.1052 87.1889 62.1971 88.068 64.2795C89.0614 66.63 89.4869 69.1043 89.3932 71.6572C89.3088 73.9683 89.3632 76.2926 88.8102 78.5606C88.6471 79.2317 88.4335 79.9177 88.1017 80.5194C86.9527 82.6056 85.5394 84.5025 83.6519 85.9814C83.1626 86.3656 82.7859 86.8043 82.3998 87.2729C81.0427 88.9092 79.4944 90.2494 77.4869 91.1379C75.5357 92.002 73.4963 92.3188 71.4551 92.7255C70.4729 92.9204 69.5076 93.1922 68.5292 93.4022C66.5535 93.8239 64.5742 94.2269 62.5948 94.6374C62.278 94.703 61.9631 94.7649 61.6445 94.8173C60.7241 94.9692 59.8019 95.121 58.8797 95.2597C58.4599 95.3234 58.0325 95.4209 57.6145 95.3928C55.6633 95.2672 53.6839 95.2728 51.7739 94.9129C49.0391 94.3975 46.4562 93.3572 44.1375 91.7639C42.385 90.5587 40.6118 89.3797 38.9154 88.0995C36.4825 86.2607 34.4881 83.9702 32.6156 81.5859C30.5706 78.9842 28.8986 76.1595 27.5097 73.1361C25.5584 68.8887 23.4048 64.735 21.356 60.5307C19.0393 55.7735 17.3467 50.8157 16.7919 45.528C16.6756 44.4258 16.8162 43.29 16.9174 42.1784C16.9549 41.7586 17.1686 41.3293 17.3898 40.9563C17.7759 40.304 18.372 40.1072 19.103 40.3059C20.1564 40.5946 20.9924 41.2281 21.7234 42.006C22.1639 42.4746 22.5538 42.9919 23.0692 43.6105C22.9718 43.3218 22.9212 43.1662 22.8668 43.0088C22.1245 40.8532 21.3691 38.7014 21.0599 36.4296C20.9005 35.2488 21.0186 34.081 21.4854 32.9732C22.2389 31.1907 24.0608 30.8514 25.4497 32.1935C26.2782 32.9939 27.1498 33.7455 27.8415 34.3734L27.8471 34.3772ZM66.2836 75.168C65.9519 75.1942 65.7325 75.1436 65.5189 74.7162C65.1965 74.0677 64.8666 73.3948 64.7166 72.6956C64.0381 69.5297 64.2649 66.3283 64.4692 63.1343C64.5535 61.8241 64.9565 60.602 65.5901 59.4529C65.935 58.8269 66.2724 58.1971 66.591 57.5579C66.6529 57.4361 66.6623 57.2262 66.5967 57.1137C66.4092 56.7913 66.1749 56.497 65.9537 56.1952C64.4917 54.1877 62.9716 52.2215 61.577 50.169C58.5648 45.7361 55.6258 41.2562 52.3568 36.9995C50.2668 34.2778 47.817 31.9348 45.2434 29.7024C44.2294 28.8233 43.1535 28.0117 42.0776 27.2057C40.9717 26.3772 39.6971 25.8974 38.3587 25.5956C38.1563 25.5506 37.8302 25.5731 37.7102 25.7024C36.623 26.8777 35.9558 28.1841 36.6455 29.8224C36.8161 30.2291 36.9773 30.6527 37.2266 31.0107C38.5012 32.8364 39.7439 34.6902 41.1141 36.4428C42.6961 38.4652 44.4543 40.3509 46.0307 42.379C47.0804 43.7304 47.9651 45.2131 48.8854 46.6639C49.249 47.2375 49.1291 47.8035 48.6998 48.1372C48.2856 48.4577 47.7345 48.4371 47.264 47.9835C46.8404 47.5748 46.4637 47.1081 46.1188 46.6283C44.4168 44.2497 42.8011 41.8036 41.0223 39.4849C38.8705 36.6789 36.5931 33.9704 34.3531 31.2319C33.5134 30.2047 32.6493 29.1944 31.7496 28.2216C31.5397 27.9948 31.0636 27.768 30.8255 27.8561C30.1714 28.0979 29.5116 28.4016 29.2023 29.1457C28.7262 30.2947 28.7449 31.4643 29.1329 32.5927C29.9708 35.0182 30.7974 37.4531 31.7983 39.8129C33.3185 43.3968 34.9848 46.9207 36.5837 50.4727C36.7018 50.7351 36.8124 51.0088 36.8592 51.2899C36.9248 51.676 36.7655 52.0003 36.4019 52.1765C36.042 52.349 35.6896 52.289 35.4197 52.0003C35.2472 51.8185 35.1029 51.5973 34.9961 51.3705C33.7927 48.8363 32.5312 46.3265 31.4197 43.7511C29.7421 39.8673 27.6578 36.2816 24.5013 33.3931C23.7665 32.7202 23.1704 32.8308 22.8462 33.768C22.4713 34.8476 22.4544 35.9592 22.7974 37.0332C23.6615 39.7361 24.5594 42.4277 25.4835 45.11C26.6306 48.4408 27.9239 51.7004 29.7234 54.7594C30.5181 56.109 30.9811 57.6554 31.5678 59.1231C31.7908 59.6816 31.6034 60.1558 31.1667 60.347C30.7299 60.5364 30.2763 60.3395 29.9952 59.8128C29.8283 59.4979 29.6953 59.1662 29.549 58.84C29.0898 57.8166 28.6531 56.7819 28.1676 55.7697C27.3879 54.1446 26.58 52.5345 25.7759 50.9207C25.4647 50.2984 25.1629 49.6686 24.7993 49.0762C24.0271 47.8148 23.2398 46.5589 22.4169 45.3312C21.9071 44.5702 21.3635 43.8204 20.7506 43.1438C20.3251 42.6733 19.7815 42.2909 19.2417 41.9479C18.7319 41.6236 18.5126 41.7173 18.4582 42.3134C18.372 43.275 18.267 44.259 18.387 45.2075C19.0393 50.3602 20.7768 55.1737 23.1105 59.7885C24.5294 62.5963 25.9558 65.3986 27.3485 68.2177C28.4713 70.4894 29.4628 72.8287 30.6624 75.0592C32.8199 79.0742 35.8264 82.4331 39.1254 85.5409C39.4459 85.8427 39.8095 86.1051 40.1732 86.3525C41.9445 87.5615 43.7177 88.7649 45.4984 89.9608C47.534 91.3272 49.817 92.1407 52.1712 92.6861C55.354 93.4247 58.563 93.1135 61.7382 92.5137C63.3052 92.2175 64.8497 91.7977 66.4148 91.4828C68.0137 91.1604 69.6163 90.8474 71.2302 90.6224C73.1946 90.3469 75.1889 90.2438 77.0033 89.3085C77.4832 89.061 78.0718 88.9786 78.486 88.6599C79.6013 87.8014 80.6866 86.8942 81.7118 85.9308C82.4391 85.2466 83.0408 84.4275 83.7212 83.6909C83.9386 83.4547 84.2835 83.3272 84.4728 83.0761C84.9546 82.4388 85.3819 81.7621 85.8318 81.1004C86.6828 79.8465 87.1926 78.4594 87.2732 76.9543C87.3744 75.0686 87.4082 73.1811 87.4307 71.2936C87.4475 69.8053 87.2226 68.3395 86.7859 66.915C85.9611 64.2177 84.7109 61.6947 83.4194 59.2074C80.4016 53.3911 77.2376 47.6536 73.6032 42.1953C72.5704 40.6433 71.3726 39.1906 70.158 37.7717C68.9903 36.4071 67.4158 35.9404 65.6445 36.1241C64.2443 36.2684 63.4045 37.0276 63.1665 38.4203C62.8741 40.141 62.9584 41.8335 63.5395 43.5036C65.0671 47.9066 66.771 52.2384 68.6604 56.497C68.7466 56.692 68.7466 56.9825 68.6679 57.183C68.2836 58.1634 67.9031 59.1493 67.4401 60.094C66.8366 61.3236 66.4898 62.6038 66.4542 63.9684C66.3923 66.2983 66.3286 68.63 66.2874 70.9618C66.263 72.3526 66.2836 73.7453 66.2836 75.1773V75.168Z"/>
</mask>
<path d="M27.8471 34.3772C27.7271 33.8767 27.5209 33.1251 27.3729 32.3622C27.0748 30.8289 27.1929 29.3425 28.0233 27.9742C28.7712 26.7408 30.4788 25.9555 31.6784 26.3622C32.1395 26.5178 32.5706 26.8477 32.9305 27.1888C33.5284 27.7549 34.0589 28.3941 34.6193 29.0051C34.6624 28.9545 34.6999 28.9301 34.698 28.9077C34.5293 27.1588 35.4178 25.8449 36.4768 24.6059C36.9567 24.0436 37.5827 23.8355 38.3119 23.9611C40.0645 24.261 41.6989 24.8721 43.1422 25.9142C44.2031 26.679 45.2509 27.4737 46.235 28.336C48.9491 30.7127 51.5883 33.1551 53.7963 36.0473C57.1759 40.4727 60.3211 45.0575 63.3521 49.7248C63.4908 49.9366 63.6313 50.1484 63.8619 50.3227C63.8113 50.184 63.7607 50.0472 63.7101 49.9085C62.9734 47.8429 62.2199 45.781 61.5039 43.7079C60.8591 41.841 60.8572 39.9273 61.2377 38.0116C61.6838 35.7773 63.234 34.4259 65.502 34.1935C68.1918 33.9161 70.4111 34.8551 72.1112 36.8945C73.4157 38.4596 74.6322 40.1053 75.785 41.7867C79.3501 46.9863 82.3773 52.5083 85.2695 58.0996C86.3079 60.1052 87.1889 62.1971 88.068 64.2795C89.0614 66.63 89.4869 69.1043 89.3932 71.6572C89.3088 73.9683 89.3632 76.2926 88.8102 78.5606C88.6471 79.2317 88.4335 79.9177 88.1017 80.5194C86.9527 82.6056 85.5394 84.5025 83.6519 85.9814C83.1626 86.3656 82.7859 86.8043 82.3998 87.2729C81.0427 88.9092 79.4944 90.2494 77.4869 91.1379C75.5357 92.002 73.4963 92.3188 71.4551 92.7255C70.4729 92.9204 69.5076 93.1922 68.5292 93.4022C66.5535 93.8239 64.5742 94.2269 62.5948 94.6374C62.278 94.703 61.9631 94.7649 61.6445 94.8173C60.7241 94.9692 59.8019 95.121 58.8797 95.2597C58.4599 95.3234 58.0325 95.4209 57.6145 95.3928C55.6633 95.2672 53.6839 95.2728 51.7739 94.9129C49.0391 94.3975 46.4562 93.3572 44.1375 91.7639C42.385 90.5587 40.6118 89.3797 38.9154 88.0995C36.4825 86.2607 34.4881 83.9702 32.6156 81.5859C30.5706 78.9842 28.8986 76.1595 27.5097 73.1361C25.5584 68.8887 23.4048 64.735 21.356 60.5307C19.0393 55.7735 17.3467 50.8157 16.7919 45.528C16.6756 44.4258 16.8162 43.29 16.9174 42.1784C16.9549 41.7586 17.1686 41.3293 17.3898 40.9563C17.7759 40.304 18.372 40.1072 19.103 40.3059C20.1564 40.5946 20.9924 41.2281 21.7234 42.006C22.1639 42.4746 22.5538 42.9919 23.0692 43.6105C22.9718 43.3218 22.9212 43.1662 22.8668 43.0088C22.1245 40.8532 21.3691 38.7014 21.0599 36.4296C20.9005 35.2488 21.0186 34.081 21.4854 32.9732C22.2389 31.1907 24.0608 30.8514 25.4497 32.1935C26.2782 32.9939 27.1498 33.7455 27.8415 34.3734L27.8471 34.3772ZM66.2836 75.168C65.9519 75.1942 65.7325 75.1436 65.5189 74.7162C65.1965 74.0677 64.8666 73.3948 64.7166 72.6956C64.0381 69.5297 64.2649 66.3283 64.4692 63.1343C64.5535 61.8241 64.9565 60.602 65.5901 59.4529C65.935 58.8269 66.2724 58.1971 66.591 57.5579C66.6529 57.4361 66.6623 57.2262 66.5967 57.1137C66.4092 56.7913 66.1749 56.497 65.9537 56.1952C64.4917 54.1877 62.9716 52.2215 61.577 50.169C58.5648 45.7361 55.6258 41.2562 52.3568 36.9995C50.2668 34.2778 47.817 31.9348 45.2434 29.7024C44.2294 28.8233 43.1535 28.0117 42.0776 27.2057C40.9717 26.3772 39.6971 25.8974 38.3587 25.5956C38.1563 25.5506 37.8302 25.5731 37.7102 25.7024C36.623 26.8777 35.9558 28.1841 36.6455 29.8224C36.8161 30.2291 36.9773 30.6527 37.2266 31.0107C38.5012 32.8364 39.7439 34.6902 41.1141 36.4428C42.6961 38.4652 44.4543 40.3509 46.0307 42.379C47.0804 43.7304 47.9651 45.2131 48.8854 46.6639C49.249 47.2375 49.1291 47.8035 48.6998 48.1372C48.2856 48.4577 47.7345 48.4371 47.264 47.9835C46.8404 47.5748 46.4637 47.1081 46.1188 46.6283C44.4168 44.2497 42.8011 41.8036 41.0223 39.4849C38.8705 36.6789 36.5931 33.9704 34.3531 31.2319C33.5134 30.2047 32.6493 29.1944 31.7496 28.2216C31.5397 27.9948 31.0636 27.768 30.8255 27.8561C30.1714 28.0979 29.5116 28.4016 29.2023 29.1457C28.7262 30.2947 28.7449 31.4643 29.1329 32.5927C29.9708 35.0182 30.7974 37.4531 31.7983 39.8129C33.3185 43.3968 34.9848 46.9207 36.5837 50.4727C36.7018 50.7351 36.8124 51.0088 36.8592 51.2899C36.9248 51.676 36.7655 52.0003 36.4019 52.1765C36.042 52.349 35.6896 52.289 35.4197 52.0003C35.2472 51.8185 35.1029 51.5973 34.9961 51.3705C33.7927 48.8363 32.5312 46.3265 31.4197 43.7511C29.7421 39.8673 27.6578 36.2816 24.5013 33.3931C23.7665 32.7202 23.1704 32.8308 22.8462 33.768C22.4713 34.8476 22.4544 35.9592 22.7974 37.0332C23.6615 39.7361 24.5594 42.4277 25.4835 45.11C26.6306 48.4408 27.9239 51.7004 29.7234 54.7594C30.5181 56.109 30.9811 57.6554 31.5678 59.1231C31.7908 59.6816 31.6034 60.1558 31.1667 60.347C30.7299 60.5364 30.2763 60.3395 29.9952 59.8128C29.8283 59.4979 29.6953 59.1662 29.549 58.84C29.0898 57.8166 28.6531 56.7819 28.1676 55.7697C27.3879 54.1446 26.58 52.5345 25.7759 50.9207C25.4647 50.2984 25.1629 49.6686 24.7993 49.0762C24.0271 47.8148 23.2398 46.5589 22.4169 45.3312C21.9071 44.5702 21.3635 43.8204 20.7506 43.1438C20.3251 42.6733 19.7815 42.2909 19.2417 41.9479C18.7319 41.6236 18.5126 41.7173 18.4582 42.3134C18.372 43.275 18.267 44.259 18.387 45.2075C19.0393 50.3602 20.7768 55.1737 23.1105 59.7885C24.5294 62.5963 25.9558 65.3986 27.3485 68.2177C28.4713 70.4894 29.4628 72.8287 30.6624 75.0592C32.8199 79.0742 35.8264 82.4331 39.1254 85.5409C39.4459 85.8427 39.8095 86.1051 40.1732 86.3525C41.9445 87.5615 43.7177 88.7649 45.4984 89.9608C47.534 91.3272 49.817 92.1407 52.1712 92.6861C55.354 93.4247 58.563 93.1135 61.7382 92.5137C63.3052 92.2175 64.8497 91.7977 66.4148 91.4828C68.0137 91.1604 69.6163 90.8474 71.2302 90.6224C73.1946 90.3469 75.1889 90.2438 77.0033 89.3085C77.4832 89.061 78.0718 88.9786 78.486 88.6599C79.6013 87.8014 80.6866 86.8942 81.7118 85.9308C82.4391 85.2466 83.0408 84.4275 83.7212 83.6909C83.9386 83.4547 84.2835 83.3272 84.4728 83.0761C84.9546 82.4388 85.3819 81.7621 85.8318 81.1004C86.6828 79.8465 87.1926 78.4594 87.2732 76.9543C87.3744 75.0686 87.4082 73.1811 87.4307 71.2936C87.4475 69.8053 87.2226 68.3395 86.7859 66.915C85.9611 64.2177 84.7109 61.6947 83.4194 59.2074C80.4016 53.3911 77.2376 47.6536 73.6032 42.1953C72.5704 40.6433 71.3726 39.1906 70.158 37.7717C68.9903 36.4071 67.4158 35.9404 65.6445 36.1241C64.2443 36.2684 63.4045 37.0276 63.1665 38.4203C62.8741 40.141 62.9584 41.8335 63.5395 43.5036C65.0671 47.9066 66.771 52.2384 68.6604 56.497C68.7466 56.692 68.7466 56.9825 68.6679 57.183C68.2836 58.1634 67.9031 59.1493 67.4401 60.094C66.8366 61.3236 66.4898 62.6038 66.4542 63.9684C66.3923 66.2983 66.3286 68.63 66.2874 70.9618C66.263 72.3526 66.2836 73.7453 66.2836 75.1773V75.168Z" fill="#251F21"/>
<path d="M27.8471 34.3772C27.7271 33.8767 27.5209 33.1251 27.3729 32.3622C27.0748 30.8289 27.1929 29.3425 28.0233 27.9742C28.7712 26.7408 30.4788 25.9555 31.6784 26.3622C32.1395 26.5178 32.5706 26.8477 32.9305 27.1888C33.5284 27.7549 34.0589 28.3941 34.6193 29.0051C34.6624 28.9545 34.6999 28.9301 34.698 28.9077C34.5293 27.1588 35.4178 25.8449 36.4768 24.6059C36.9567 24.0436 37.5827 23.8355 38.3119 23.9611C40.0645 24.261 41.6989 24.8721 43.1422 25.9142C44.2031 26.679 45.2509 27.4737 46.235 28.336C48.9491 30.7127 51.5883 33.1551 53.7963 36.0473C57.1759 40.4727 60.3211 45.0575 63.3521 49.7248C63.4908 49.9366 63.6313 50.1484 63.8619 50.3227C63.8113 50.184 63.7607 50.0472 63.7101 49.9085C62.9734 47.8429 62.2199 45.781 61.5039 43.7079C60.8591 41.841 60.8572 39.9273 61.2377 38.0116C61.6838 35.7773 63.234 34.4259 65.502 34.1935C68.1918 33.9161 70.4111 34.8551 72.1112 36.8945C73.4157 38.4596 74.6322 40.1053 75.785 41.7867C79.3501 46.9863 82.3773 52.5083 85.2695 58.0996C86.3079 60.1052 87.1889 62.1971 88.068 64.2795C89.0614 66.63 89.4869 69.1043 89.3932 71.6572C89.3088 73.9683 89.3632 76.2926 88.8102 78.5606C88.6471 79.2317 88.4335 79.9177 88.1017 80.5194C86.9527 82.6056 85.5394 84.5025 83.6519 85.9814C83.1626 86.3656 82.7859 86.8043 82.3998 87.2729C81.0427 88.9092 79.4944 90.2494 77.4869 91.1379C75.5357 92.002 73.4963 92.3188 71.4551 92.7255C70.4729 92.9204 69.5076 93.1922 68.5292 93.4022C66.5535 93.8239 64.5742 94.2269 62.5948 94.6374C62.278 94.703 61.9631 94.7649 61.6445 94.8173C60.7241 94.9692 59.8019 95.121 58.8797 95.2597C58.4599 95.3234 58.0325 95.4209 57.6145 95.3928C55.6633 95.2672 53.6839 95.2728 51.7739 94.9129C49.0391 94.3975 46.4562 93.3572 44.1375 91.7639C42.385 90.5587 40.6118 89.3797 38.9154 88.0995C36.4825 86.2607 34.4881 83.9702 32.6156 81.5859C30.5706 78.9842 28.8986 76.1595 27.5097 73.1361C25.5584 68.8887 23.4048 64.735 21.356 60.5307C19.0393 55.7735 17.3467 50.8157 16.7919 45.528C16.6756 44.4258 16.8162 43.29 16.9174 42.1784C16.9549 41.7586 17.1686 41.3293 17.3898 40.9563C17.7759 40.304 18.372 40.1072 19.103 40.3059C20.1564 40.5946 20.9924 41.2281 21.7234 42.006C22.1639 42.4746 22.5538 42.9919 23.0692 43.6105C22.9718 43.3218 22.9212 43.1662 22.8668 43.0088C22.1245 40.8532 21.3691 38.7014 21.0599 36.4296C20.9005 35.2488 21.0186 34.081 21.4854 32.9732C22.2389 31.1907 24.0608 30.8514 25.4497 32.1935C26.2782 32.9939 27.1498 33.7455 27.8415 34.3734L27.8471 34.3772ZM66.2836 75.168C65.9519 75.1942 65.7325 75.1436 65.5189 74.7162C65.1965 74.0677 64.8666 73.3948 64.7166 72.6956C64.0381 69.5297 64.2649 66.3283 64.4692 63.1343C64.5535 61.8241 64.9565 60.602 65.5901 59.4529C65.935 58.8269 66.2724 58.1971 66.591 57.5579C66.6529 57.4361 66.6623 57.2262 66.5967 57.1137C66.4092 56.7913 66.1749 56.497 65.9537 56.1952C64.4917 54.1877 62.9716 52.2215 61.577 50.169C58.5648 45.7361 55.6258 41.2562 52.3568 36.9995C50.2668 34.2778 47.817 31.9348 45.2434 29.7024C44.2294 28.8233 43.1535 28.0117 42.0776 27.2057C40.9717 26.3772 39.6971 25.8974 38.3587 25.5956C38.1563 25.5506 37.8302 25.5731 37.7102 25.7024C36.623 26.8777 35.9558 28.1841 36.6455 29.8224C36.8161 30.2291 36.9773 30.6527 37.2266 31.0107C38.5012 32.8364 39.7439 34.6902 41.1141 36.4428C42.6961 38.4652 44.4543 40.3509 46.0307 42.379C47.0804 43.7304 47.9651 45.2131 48.8854 46.6639C49.249 47.2375 49.1291 47.8035 48.6998 48.1372C48.2856 48.4577 47.7345 48.4371 47.264 47.9835C46.8404 47.5748 46.4637 47.1081 46.1188 46.6283C44.4168 44.2497 42.8011 41.8036 41.0223 39.4849C38.8705 36.6789 36.5931 33.9704 34.3531 31.2319C33.5134 30.2047 32.6493 29.1944 31.7496 28.2216C31.5397 27.9948 31.0636 27.768 30.8255 27.8561C30.1714 28.0979 29.5116 28.4016 29.2023 29.1457C28.7262 30.2947 28.7449 31.4643 29.1329 32.5927C29.9708 35.0182 30.7974 37.4531 31.7983 39.8129C33.3185 43.3968 34.9848 46.9207 36.5837 50.4727C36.7018 50.7351 36.8124 51.0088 36.8592 51.2899C36.9248 51.676 36.7655 52.0003 36.4019 52.1765C36.042 52.349 35.6896 52.289 35.4197 52.0003C35.2472 51.8185 35.1029 51.5973 34.9961 51.3705C33.7927 48.8363 32.5312 46.3265 31.4197 43.7511C29.7421 39.8673 27.6578 36.2816 24.5013 33.3931C23.7665 32.7202 23.1704 32.8308 22.8462 33.768C22.4713 34.8476 22.4544 35.9592 22.7974 37.0332C23.6615 39.7361 24.5594 42.4277 25.4835 45.11C26.6306 48.4408 27.9239 51.7004 29.7234 54.7594C30.5181 56.109 30.9811 57.6554 31.5678 59.1231C31.7908 59.6816 31.6034 60.1558 31.1667 60.347C30.7299 60.5364 30.2763 60.3395 29.9952 59.8128C29.8283 59.4979 29.6953 59.1662 29.549 58.84C29.0898 57.8166 28.6531 56.7819 28.1676 55.7697C27.3879 54.1446 26.58 52.5345 25.7759 50.9207C25.4647 50.2984 25.1629 49.6686 24.7993 49.0762C24.0271 47.8148 23.2398 46.5589 22.4169 45.3312C21.9071 44.5702 21.3635 43.8204 20.7506 43.1438C20.3251 42.6733 19.7815 42.2909 19.2417 41.9479C18.7319 41.6236 18.5126 41.7173 18.4582 42.3134C18.372 43.275 18.267 44.259 18.387 45.2075C19.0393 50.3602 20.7768 55.1737 23.1105 59.7885C24.5294 62.5963 25.9558 65.3986 27.3485 68.2177C28.4713 70.4894 29.4628 72.8287 30.6624 75.0592C32.8199 79.0742 35.8264 82.4331 39.1254 85.5409C39.4459 85.8427 39.8095 86.1051 40.1732 86.3525C41.9445 87.5615 43.7177 88.7649 45.4984 89.9608C47.534 91.3272 49.817 92.1407 52.1712 92.6861C55.354 93.4247 58.563 93.1135 61.7382 92.5137C63.3052 92.2175 64.8497 91.7977 66.4148 91.4828C68.0137 91.1604 69.6163 90.8474 71.2302 90.6224C73.1946 90.3469 75.1889 90.2438 77.0033 89.3085C77.4832 89.061 78.0718 88.9786 78.486 88.6599C79.6013 87.8014 80.6866 86.8942 81.7118 85.9308C82.4391 85.2466 83.0408 84.4275 83.7212 83.6909C83.9386 83.4547 84.2835 83.3272 84.4728 83.0761C84.9546 82.4388 85.3819 81.7621 85.8318 81.1004C86.6828 79.8465 87.1926 78.4594 87.2732 76.9543C87.3744 75.0686 87.4082 73.1811 87.4307 71.2936C87.4475 69.8053 87.2226 68.3395 86.7859 66.915C85.9611 64.2177 84.7109 61.6947 83.4194 59.2074C80.4016 53.3911 77.2376 47.6536 73.6032 42.1953C72.5704 40.6433 71.3726 39.1906 70.158 37.7717C68.9903 36.4071 67.4158 35.9404 65.6445 36.1241C64.2443 36.2684 63.4045 37.0276 63.1665 38.4203C62.8741 40.141 62.9584 41.8335 63.5395 43.5036C65.0671 47.9066 66.771 52.2384 68.6604 56.497C68.7466 56.692 68.7466 56.9825 68.6679 57.183C68.2836 58.1634 67.9031 59.1493 67.4401 60.094C66.8366 61.3236 66.4898 62.6038 66.4542 63.9684C66.3923 66.2983 66.3286 68.63 66.2874 70.9618C66.263 72.3526 66.2836 73.7453 66.2836 75.1773V75.168Z" stroke="#251F21" mask="url(#path-2-outside-1_37_1159)"/>
<path d="M81.8936 10.8716C82.998 10.7325 83.832 11.295 84.5889 11.8306C85.293 12.3293 86.0068 12.8108 86.751 13.23C89.4996 14.7758 91.8359 16.7926 93.835 19.2134C96.4802 22.417 98.8678 25.7988 100.919 29.4194V29.4204C102.641 32.4623 103.676 35.7224 104.141 39.1694L104.145 39.2446C104.141 39.3168 104.121 39.3799 104.107 39.4233C104.086 39.493 104.061 39.5641 104.032 39.6753L103.922 40.0981L103.611 39.7876L103.588 39.7632L103.57 39.7339C103.504 39.6175 103.453 39.5391 103.403 39.4575C103.38 39.4196 103.357 39.3793 103.336 39.3364L103.281 39.1978C101.672 33.391 98.3459 28.5097 94.7549 23.7554C93.2593 21.7768 91.6014 19.9032 89.8691 18.1187C88.9609 17.1846 87.8601 16.4579 86.7666 15.6587L86.2988 15.311C85.4977 14.7011 84.6953 14.0954 83.8848 13.5034L83.0713 12.9165C82.8519 12.76 82.6134 12.6259 82.3613 12.4858C82.1132 12.348 81.8503 12.2038 81.6035 12.0347V12.0337C81.4592 11.935 81.3443 11.8094 81.248 11.6929C81.142 11.5644 81.0726 11.4669 80.9795 11.3628L80.6533 10.9985L81.1406 10.9478C81.4044 10.9204 81.6431 10.9031 81.8936 10.8716Z" fill="#251F21" stroke="#251F21" stroke-width="0.5"/>
<path d="M77.4521 20.4036C77.6335 20.4284 77.7986 20.5102 77.9365 20.5979C78.0752 20.6861 78.2054 20.7924 78.3135 20.8811L78.3145 20.8821C80.9811 23.0848 83.3261 25.5925 85.3877 28.3645C86.8782 30.3672 87.5821 32.6435 87.8232 35.2083L87.7275 35.217L87.8242 35.2297V35.2317L87.6172 35.2405L87.8154 35.2952C87.7773 35.4363 87.7537 35.5756 87.7031 35.7834C87.657 35.9728 87.5946 36.1855 87.4971 36.387V36.3879C87.3461 36.6971 87.0735 36.8839 86.7754 36.9133C86.4774 36.9427 86.1774 36.8121 85.9824 36.5403C85.9228 36.4574 85.9096 36.3673 85.9072 36.3049C85.9049 36.2429 85.913 36.1814 85.9189 36.1379C85.9259 36.087 85.9304 36.0543 85.9326 36.0217C85.9344 35.9957 85.9329 35.9847 85.9326 35.9827C85.8972 35.8534 85.8451 35.7267 85.7852 35.5803C85.7275 35.4397 85.6628 35.2805 85.623 35.1106C84.7836 31.5286 82.63 28.7231 80.1758 26.052C79.6518 25.4821 79.1192 24.9243 78.584 24.3674L76.9766 22.6877C76.7883 22.4889 76.5261 22.2348 76.3721 21.9329L76.3135 21.801C76.2516 21.6387 76.2282 21.4391 76.2393 21.2561C76.2499 21.0798 76.2957 20.8697 76.4199 20.719C76.5446 20.5679 76.7415 20.4842 76.9111 20.4407C77.0436 20.4067 77.1871 20.3896 77.3213 20.3928L77.4521 20.4036Z" fill="#251F21" stroke="#251F21" stroke-width="0.5"/>
<path d="M18.0518 77.6108C18.3299 77.5126 18.6305 77.6206 18.8672 77.8354H18.8682C19.1422 78.084 19.4016 78.3687 19.6133 78.6782H19.6123C20.374 79.7903 21.051 80.9037 21.835 81.9683C22.3519 82.6704 22.9629 83.3178 23.5938 83.9468C24.1384 84.4896 24.6979 85.0199 25.2598 85.5522C25.8208 86.0838 26.385 86.6177 26.9355 87.1646V87.1655C27.0897 87.3187 27.2849 87.5232 27.3828 87.7935C27.4866 88.0801 27.4714 88.4073 27.2783 88.7817L27.0186 88.7183L26.9141 88.8716C25.1441 87.6573 23.4362 86.5127 21.7656 85.3208C21.2507 84.9533 20.7196 84.4933 20.3613 83.9438C19.6847 82.9041 19.0466 81.8383 18.4316 80.7622L17.8232 79.6831C17.5971 79.2753 17.5626 78.7407 17.5898 78.3198L17.6045 78.1997C17.652 77.9253 17.8011 77.6995 18.0518 77.6108Z" fill="#251F21" stroke="#251F21" stroke-width="0.5"/>
</svg>
