<svg width="624" height="624" viewBox="0 0 624 624" fill="none" xmlns="http://www.w3.org/2000/svg">
<path d="M40.8833 438.457C42.0279 438.169 43.0095 438.791 43.7056 439.578L43.7046 439.579C45.9706 442.139 48.7422 444.806 50.7417 447.885L51.1313 448.506L51.1323 448.509C54.4002 453.959 57.2041 459.686 59.9233 465.377L60.5562 466.688C73.9199 494.149 91.9582 517.611 117.333 535.087H117.334C120.122 537.009 122.785 539.095 125.413 541.162C128.049 543.236 130.648 545.29 133.349 547.189L133.85 547.531C136.379 549.203 139.253 550.367 142.23 551.784C145.619 553.397 149.409 554.947 152.862 556.684C153.526 557.016 154.072 557.661 154.414 558.224C154.596 558.524 154.758 558.862 154.862 559.21C154.959 559.536 155.042 559.988 154.932 560.456L154.931 560.455C154.734 561.306 154.068 561.884 153.629 562.219C153.175 562.565 152.552 562.939 152.238 563.148C151.791 563.446 151.292 563.518 150.948 563.534C150.581 563.552 150.225 563.513 149.949 563.469V563.468C141.236 562.247 131.897 561.635 123.897 555.772L122.136 554.495C118.016 551.531 113.81 548.672 109.588 545.8C104.77 542.522 99.9327 539.228 95.2222 535.761V535.76C84.299 527.712 74.82 518.162 67.6694 506.446L66.9849 505.306C65.5304 502.839 63.8802 500.466 62.1616 498.125L61.4214 497.124C53.8053 486.902 48.6218 475.508 44.561 463.623L43.812 461.416C42.0767 456.263 40.4327 451.086 38.7505 445.957L38.688 445.768V440.974H39.9126L38.8052 440.456C39.1962 439.62 39.8436 438.718 40.8833 438.457Z" fill="white" stroke="white" stroke-width="2.496"/>
<mask id="path-2-outside-1_926_79636" maskUnits="userSpaceOnUse" x="91.1567" y="131.501" width="414" height="408" fill="black">
<rect fill="white" x="91.1567" y="131.501" width="414" height="408"/>
<path d="M156.551 193.255C155.877 190.442 154.718 186.216 153.885 181.928C152.21 173.308 152.874 164.952 157.542 157.26C161.746 150.327 171.346 145.912 178.089 148.198C180.682 149.073 183.105 150.927 185.128 152.845C188.49 156.027 191.472 159.62 194.622 163.056C194.865 162.771 195.075 162.634 195.065 162.508C194.116 152.676 199.111 145.29 205.065 138.325C207.762 135.164 211.282 133.994 215.38 134.7C225.233 136.386 234.421 139.821 242.535 145.68C248.499 149.979 254.389 154.447 259.921 159.294C275.179 172.655 290.015 186.385 302.428 202.644C321.427 227.522 339.108 253.296 356.147 279.534C356.927 280.724 357.717 281.915 359.013 282.895C358.728 282.115 358.444 281.346 358.159 280.566C354.018 268.954 349.782 257.363 345.757 245.709C342.132 235.214 342.122 224.456 344.261 213.687C346.769 201.126 355.483 193.529 368.233 192.223C383.354 190.663 395.83 195.942 405.387 207.407C412.721 216.205 419.56 225.457 426.04 234.909C446.082 264.139 463.099 295.181 479.358 326.614C485.196 337.889 490.148 349.648 495.09 361.355C500.675 374.569 503.067 388.478 502.54 402.829C502.066 415.822 502.371 428.888 499.263 441.638C498.346 445.41 497.145 449.267 495.28 452.649C488.821 464.377 480.876 475.041 470.265 483.355C467.514 485.515 465.396 487.98 463.226 490.615C455.597 499.814 446.893 507.348 435.608 512.342C424.639 517.2 413.174 518.981 401.699 521.267C396.178 522.363 390.751 523.891 385.251 525.071C374.144 527.442 363.017 529.708 351.89 532.015C350.109 532.384 348.339 532.732 346.547 533.027C341.374 533.88 336.189 534.734 331.005 535.514C328.645 535.872 326.242 536.42 323.893 536.262C312.923 535.556 301.796 535.588 291.059 533.564C275.685 530.667 261.165 524.819 248.13 515.862C238.278 509.086 228.31 502.459 218.773 495.262C205.096 484.925 193.885 472.048 183.358 458.645C171.862 444.019 162.463 428.14 154.655 411.143C143.685 387.266 131.578 363.916 120.061 340.281C107.037 313.537 97.522 285.666 94.403 255.941C93.7497 249.745 94.54 243.36 95.109 237.111C95.3197 234.751 96.521 232.338 97.7644 230.241C99.935 226.574 103.286 225.467 107.395 226.584C113.317 228.207 118.017 231.769 122.126 236.142C124.603 238.776 126.794 241.684 129.692 245.161C129.144 243.539 128.86 242.664 128.554 241.779C124.381 229.661 120.135 217.564 118.396 204.793C117.501 198.155 118.164 191.59 120.788 185.363C125.024 175.342 135.266 173.435 143.074 180.979C147.732 185.479 152.632 189.704 156.52 193.234L156.551 193.255ZM372.627 422.566C370.762 422.713 369.529 422.429 368.328 420.026C366.515 416.38 364.661 412.597 363.818 408.667C360.003 390.87 361.278 372.872 362.427 354.917C362.901 347.551 365.167 340.681 368.728 334.222C370.667 330.702 372.564 327.162 374.355 323.569C374.703 322.884 374.756 321.704 374.387 321.071C373.333 319.259 372.016 317.605 370.772 315.908C362.553 304.623 354.008 293.569 346.168 282.031C329.235 257.111 312.713 231.927 294.336 207.997C282.587 192.697 268.815 179.525 254.347 166.975C248.646 162.033 242.598 157.471 236.55 152.94C230.333 148.282 223.167 145.585 215.644 143.888C214.506 143.636 212.672 143.762 211.998 144.489C205.886 151.096 202.135 158.44 206.013 167.65C206.972 169.936 207.878 172.318 209.279 174.33C216.445 184.594 223.431 195.015 231.134 204.867C240.027 216.237 249.911 226.837 258.773 238.238C264.673 245.836 269.647 254.171 274.821 262.326C276.865 265.551 276.191 268.733 273.778 270.609C271.449 272.411 268.351 272.295 265.706 269.745C263.325 267.448 261.207 264.824 259.268 262.126C249.7 248.755 240.617 235.004 230.617 221.969C218.521 206.195 205.718 190.969 193.126 175.574C188.405 169.799 183.548 164.12 178.49 158.651C177.31 157.376 174.633 156.101 173.295 156.596C169.617 157.956 165.908 159.663 164.17 163.846C161.493 170.305 161.599 176.88 163.78 183.224C168.49 196.859 173.137 210.547 178.764 223.813C187.309 243.96 196.677 263.77 205.665 283.738C206.329 285.213 206.951 286.752 207.214 288.332C207.583 290.503 206.687 292.326 204.643 293.316C202.62 294.286 200.639 293.949 199.122 292.326C198.152 291.304 197.341 290.06 196.74 288.785C189.975 274.539 182.884 260.43 176.635 245.952C167.204 224.119 155.487 203.961 137.742 187.723C133.612 183.94 130.261 184.562 128.438 189.831C126.331 195.9 126.236 202.149 128.164 208.186C133.022 223.381 138.069 238.512 143.264 253.591C149.713 272.316 156.983 290.64 167.099 307.837C171.567 315.423 174.17 324.117 177.468 332.367C178.722 335.507 177.668 338.173 175.213 339.248C172.758 340.312 170.208 339.206 168.627 336.245C167.689 334.475 166.941 332.61 166.119 330.776C163.538 325.023 161.082 319.206 158.353 313.516C153.97 304.38 149.428 295.329 144.908 286.256C143.159 282.758 141.462 279.218 139.418 275.888C135.077 268.796 130.651 261.736 126.025 254.835C123.159 250.556 120.103 246.342 116.658 242.538C114.266 239.893 111.21 237.743 108.175 235.815C105.309 233.992 104.076 234.519 103.771 237.87C103.286 243.275 102.696 248.807 103.37 254.139C107.037 283.106 116.805 310.165 129.924 336.108C137.901 351.893 145.919 367.646 153.748 383.494C160.06 396.265 165.634 409.415 172.378 421.954C184.507 444.525 201.408 463.408 219.954 480.878C221.755 482.575 223.8 484.05 225.844 485.441C235.802 492.238 245.77 499.002 255.78 505.725C267.223 513.407 280.058 517.98 293.292 521.046C311.185 525.198 329.224 523.449 347.074 520.077C355.883 518.412 364.566 516.052 373.365 514.281C382.353 512.469 391.362 510.709 400.435 509.445C411.478 507.896 422.689 507.316 432.889 502.058C435.587 500.667 438.895 500.204 441.224 498.412C447.494 493.586 453.595 488.486 459.359 483.07C463.447 479.224 466.83 474.619 470.655 470.478C471.877 469.151 473.816 468.434 474.88 467.022C477.588 463.439 479.99 459.635 482.519 455.916C487.303 448.866 490.169 441.069 490.622 432.608C491.191 422.007 491.381 411.396 491.508 400.785C491.602 392.419 490.338 384.179 487.883 376.17C483.246 361.007 476.218 346.824 468.958 332.841C451.993 300.144 434.206 267.89 413.775 237.206C407.969 228.481 401.235 220.315 394.407 212.338C387.843 204.667 378.991 202.043 369.034 203.076C361.163 203.887 356.442 208.155 355.104 215.984C353.46 225.657 353.934 235.172 357.201 244.561C365.788 269.313 375.367 293.664 385.988 317.605C386.473 318.7 386.473 320.334 386.03 321.461C383.87 326.972 381.731 332.515 379.128 337.825C375.735 344.738 373.786 351.935 373.586 359.606C373.238 372.704 372.88 385.812 372.648 398.92C372.511 406.739 372.627 414.568 372.627 422.618V422.566Z"/>
</mask>
<path d="M156.551 193.255C155.877 190.442 154.718 186.216 153.885 181.928C152.21 173.308 152.874 164.952 157.542 157.26C161.746 150.327 171.346 145.912 178.089 148.198C180.682 149.073 183.105 150.927 185.128 152.845C188.49 156.027 191.472 159.62 194.622 163.056C194.865 162.771 195.075 162.634 195.065 162.508C194.116 152.676 199.111 145.29 205.065 138.325C207.762 135.164 211.282 133.994 215.38 134.7C225.233 136.386 234.421 139.821 242.535 145.68C248.499 149.979 254.389 154.447 259.921 159.294C275.179 172.655 290.015 186.385 302.428 202.644C321.427 227.522 339.108 253.296 356.147 279.534C356.927 280.724 357.717 281.915 359.013 282.895C358.728 282.115 358.444 281.346 358.159 280.566C354.018 268.954 349.782 257.363 345.757 245.709C342.132 235.214 342.122 224.456 344.261 213.687C346.769 201.126 355.483 193.529 368.233 192.223C383.354 190.663 395.83 195.942 405.387 207.407C412.721 216.205 419.56 225.457 426.04 234.909C446.082 264.139 463.099 295.181 479.358 326.614C485.196 337.889 490.148 349.648 495.09 361.355C500.675 374.569 503.067 388.478 502.54 402.829C502.066 415.822 502.371 428.888 499.263 441.638C498.346 445.41 497.145 449.267 495.28 452.649C488.821 464.377 480.876 475.041 470.265 483.355C467.514 485.515 465.396 487.98 463.226 490.615C455.597 499.814 446.893 507.348 435.608 512.342C424.639 517.2 413.174 518.981 401.699 521.267C396.178 522.363 390.751 523.891 385.251 525.071C374.144 527.442 363.017 529.708 351.89 532.015C350.109 532.384 348.339 532.732 346.547 533.027C341.374 533.88 336.189 534.734 331.005 535.514C328.645 535.872 326.242 536.42 323.893 536.262C312.923 535.556 301.796 535.588 291.059 533.564C275.685 530.667 261.165 524.819 248.13 515.862C238.278 509.086 228.31 502.459 218.773 495.262C205.096 484.925 193.885 472.048 183.358 458.645C171.862 444.019 162.463 428.14 154.655 411.143C143.685 387.266 131.578 363.916 120.061 340.281C107.037 313.537 97.522 285.666 94.403 255.941C93.7497 249.745 94.54 243.36 95.109 237.111C95.3197 234.751 96.521 232.338 97.7644 230.241C99.935 226.574 103.286 225.467 107.395 226.584C113.317 228.207 118.017 231.769 122.126 236.142C124.603 238.776 126.794 241.684 129.692 245.161C129.144 243.539 128.86 242.664 128.554 241.779C124.381 229.661 120.135 217.564 118.396 204.793C117.501 198.155 118.164 191.59 120.788 185.363C125.024 175.342 135.266 173.435 143.074 180.979C147.732 185.479 152.632 189.704 156.52 193.234L156.551 193.255ZM372.627 422.566C370.762 422.713 369.529 422.429 368.328 420.026C366.515 416.38 364.661 412.597 363.818 408.667C360.003 390.87 361.278 372.872 362.427 354.917C362.901 347.551 365.167 340.681 368.728 334.222C370.667 330.702 372.564 327.162 374.355 323.569C374.703 322.884 374.756 321.704 374.387 321.071C373.333 319.259 372.016 317.605 370.772 315.908C362.553 304.623 354.008 293.569 346.168 282.031C329.235 257.111 312.713 231.927 294.336 207.997C282.587 192.697 268.815 179.525 254.347 166.975C248.646 162.033 242.598 157.471 236.55 152.94C230.333 148.282 223.167 145.585 215.644 143.888C214.506 143.636 212.672 143.762 211.998 144.489C205.886 151.096 202.135 158.44 206.013 167.65C206.972 169.936 207.878 172.318 209.279 174.33C216.445 184.594 223.431 195.015 231.134 204.867C240.027 216.237 249.911 226.837 258.773 238.238C264.673 245.836 269.647 254.171 274.821 262.326C276.865 265.551 276.191 268.733 273.778 270.609C271.449 272.411 268.351 272.295 265.706 269.745C263.325 267.448 261.207 264.824 259.268 262.126C249.7 248.755 240.617 235.004 230.617 221.969C218.521 206.195 205.718 190.969 193.126 175.574C188.405 169.799 183.548 164.12 178.49 158.651C177.31 157.376 174.633 156.101 173.295 156.596C169.617 157.956 165.908 159.663 164.17 163.846C161.493 170.305 161.599 176.88 163.78 183.224C168.49 196.859 173.137 210.547 178.764 223.813C187.309 243.96 196.677 263.77 205.665 283.738C206.329 285.213 206.951 286.752 207.214 288.332C207.583 290.503 206.687 292.326 204.643 293.316C202.62 294.286 200.639 293.949 199.122 292.326C198.152 291.304 197.341 290.06 196.74 288.785C189.975 274.539 182.884 260.43 176.635 245.952C167.204 224.119 155.487 203.961 137.742 187.723C133.612 183.94 130.261 184.562 128.438 189.831C126.331 195.9 126.236 202.149 128.164 208.186C133.022 223.381 138.069 238.512 143.264 253.591C149.713 272.316 156.983 290.64 167.099 307.837C171.567 315.423 174.17 324.117 177.468 332.367C178.722 335.507 177.668 338.173 175.213 339.248C172.758 340.312 170.208 339.206 168.627 336.245C167.689 334.475 166.941 332.61 166.119 330.776C163.538 325.023 161.082 319.206 158.353 313.516C153.97 304.38 149.428 295.329 144.908 286.256C143.159 282.758 141.462 279.218 139.418 275.888C135.077 268.796 130.651 261.736 126.025 254.835C123.159 250.556 120.103 246.342 116.658 242.538C114.266 239.893 111.21 237.743 108.175 235.815C105.309 233.992 104.076 234.519 103.771 237.87C103.286 243.275 102.696 248.807 103.37 254.139C107.037 283.106 116.805 310.165 129.924 336.108C137.901 351.893 145.919 367.646 153.748 383.494C160.06 396.265 165.634 409.415 172.378 421.954C184.507 444.525 201.408 463.408 219.954 480.878C221.755 482.575 223.8 484.05 225.844 485.441C235.802 492.238 245.77 499.002 255.78 505.725C267.223 513.407 280.058 517.98 293.292 521.046C311.185 525.198 329.224 523.449 347.074 520.077C355.883 518.412 364.566 516.052 373.365 514.281C382.353 512.469 391.362 510.709 400.435 509.445C411.478 507.896 422.689 507.316 432.889 502.058C435.587 500.667 438.895 500.204 441.224 498.412C447.494 493.586 453.595 488.486 459.359 483.07C463.447 479.224 466.83 474.619 470.655 470.478C471.877 469.151 473.816 468.434 474.88 467.022C477.588 463.439 479.99 459.635 482.519 455.916C487.303 448.866 490.169 441.069 490.622 432.608C491.191 422.007 491.381 411.396 491.508 400.785C491.602 392.419 490.338 384.179 487.883 376.17C483.246 361.007 476.218 346.824 468.958 332.841C451.993 300.144 434.206 267.89 413.775 237.206C407.969 228.481 401.235 220.315 394.407 212.338C387.843 204.667 378.991 202.043 369.034 203.076C361.163 203.887 356.442 208.155 355.104 215.984C353.46 225.657 353.934 235.172 357.201 244.561C365.788 269.313 375.367 293.664 385.988 317.605C386.473 318.7 386.473 320.334 386.03 321.461C383.87 326.972 381.731 332.515 379.128 337.825C375.735 344.738 373.786 351.935 373.586 359.606C373.238 372.704 372.88 385.812 372.648 398.92C372.511 406.739 372.627 414.568 372.627 422.618V422.566Z" fill="white"/>
<path d="M156.551 193.255C155.877 190.442 154.718 186.216 153.885 181.928C152.21 173.308 152.874 164.952 157.542 157.26C161.746 150.327 171.346 145.912 178.089 148.198C180.682 149.073 183.105 150.927 185.128 152.845C188.49 156.027 191.472 159.62 194.622 163.056C194.865 162.771 195.075 162.634 195.065 162.508C194.116 152.676 199.111 145.29 205.065 138.325C207.762 135.164 211.282 133.994 215.38 134.7C225.233 136.386 234.421 139.821 242.535 145.68C248.499 149.979 254.389 154.447 259.921 159.294C275.179 172.655 290.015 186.385 302.428 202.644C321.427 227.522 339.108 253.296 356.147 279.534C356.927 280.724 357.717 281.915 359.013 282.895C358.728 282.115 358.444 281.346 358.159 280.566C354.018 268.954 349.782 257.363 345.757 245.709C342.132 235.214 342.122 224.456 344.261 213.687C346.769 201.126 355.483 193.529 368.233 192.223C383.354 190.663 395.83 195.942 405.387 207.407C412.721 216.205 419.56 225.457 426.04 234.909C446.082 264.139 463.099 295.181 479.358 326.614C485.196 337.889 490.148 349.648 495.09 361.355C500.675 374.569 503.067 388.478 502.54 402.829C502.066 415.822 502.371 428.888 499.263 441.638C498.346 445.41 497.145 449.267 495.28 452.649C488.821 464.377 480.876 475.041 470.265 483.355C467.514 485.515 465.396 487.98 463.226 490.615C455.597 499.814 446.893 507.348 435.608 512.342C424.639 517.2 413.174 518.981 401.699 521.267C396.178 522.363 390.751 523.891 385.251 525.071C374.144 527.442 363.017 529.708 351.89 532.015C350.109 532.384 348.339 532.732 346.547 533.027C341.374 533.88 336.189 534.734 331.005 535.514C328.645 535.872 326.242 536.42 323.893 536.262C312.923 535.556 301.796 535.588 291.059 533.564C275.685 530.667 261.165 524.819 248.13 515.862C238.278 509.086 228.31 502.459 218.773 495.262C205.096 484.925 193.885 472.048 183.358 458.645C171.862 444.019 162.463 428.14 154.655 411.143C143.685 387.266 131.578 363.916 120.061 340.281C107.037 313.537 97.522 285.666 94.403 255.941C93.7497 249.745 94.54 243.36 95.109 237.111C95.3197 234.751 96.521 232.338 97.7644 230.241C99.935 226.574 103.286 225.467 107.395 226.584C113.317 228.207 118.017 231.769 122.126 236.142C124.603 238.776 126.794 241.684 129.692 245.161C129.144 243.539 128.86 242.664 128.554 241.779C124.381 229.661 120.135 217.564 118.396 204.793C117.501 198.155 118.164 191.59 120.788 185.363C125.024 175.342 135.266 173.435 143.074 180.979C147.732 185.479 152.632 189.704 156.52 193.234L156.551 193.255ZM372.627 422.566C370.762 422.713 369.529 422.429 368.328 420.026C366.515 416.38 364.661 412.597 363.818 408.667C360.003 390.87 361.278 372.872 362.427 354.917C362.901 347.551 365.167 340.681 368.728 334.222C370.667 330.702 372.564 327.162 374.355 323.569C374.703 322.884 374.756 321.704 374.387 321.071C373.333 319.259 372.016 317.605 370.772 315.908C362.553 304.623 354.008 293.569 346.168 282.031C329.235 257.111 312.713 231.927 294.336 207.997C282.587 192.697 268.815 179.525 254.347 166.975C248.646 162.033 242.598 157.471 236.55 152.94C230.333 148.282 223.167 145.585 215.644 143.888C214.506 143.636 212.672 143.762 211.998 144.489C205.886 151.096 202.135 158.44 206.013 167.65C206.972 169.936 207.878 172.318 209.279 174.33C216.445 184.594 223.431 195.015 231.134 204.867C240.027 216.237 249.911 226.837 258.773 238.238C264.673 245.836 269.647 254.171 274.821 262.326C276.865 265.551 276.191 268.733 273.778 270.609C271.449 272.411 268.351 272.295 265.706 269.745C263.325 267.448 261.207 264.824 259.268 262.126C249.7 248.755 240.617 235.004 230.617 221.969C218.521 206.195 205.718 190.969 193.126 175.574C188.405 169.799 183.548 164.12 178.49 158.651C177.31 157.376 174.633 156.101 173.295 156.596C169.617 157.956 165.908 159.663 164.17 163.846C161.493 170.305 161.599 176.88 163.78 183.224C168.49 196.859 173.137 210.547 178.764 223.813C187.309 243.96 196.677 263.77 205.665 283.738C206.329 285.213 206.951 286.752 207.214 288.332C207.583 290.503 206.687 292.326 204.643 293.316C202.62 294.286 200.639 293.949 199.122 292.326C198.152 291.304 197.341 290.06 196.74 288.785C189.975 274.539 182.884 260.43 176.635 245.952C167.204 224.119 155.487 203.961 137.742 187.723C133.612 183.94 130.261 184.562 128.438 189.831C126.331 195.9 126.236 202.149 128.164 208.186C133.022 223.381 138.069 238.512 143.264 253.591C149.713 272.316 156.983 290.64 167.099 307.837C171.567 315.423 174.17 324.117 177.468 332.367C178.722 335.507 177.668 338.173 175.213 339.248C172.758 340.312 170.208 339.206 168.627 336.245C167.689 334.475 166.941 332.61 166.119 330.776C163.538 325.023 161.082 319.206 158.353 313.516C153.97 304.38 149.428 295.329 144.908 286.256C143.159 282.758 141.462 279.218 139.418 275.888C135.077 268.796 130.651 261.736 126.025 254.835C123.159 250.556 120.103 246.342 116.658 242.538C114.266 239.893 111.21 237.743 108.175 235.815C105.309 233.992 104.076 234.519 103.771 237.87C103.286 243.275 102.696 248.807 103.37 254.139C107.037 283.106 116.805 310.165 129.924 336.108C137.901 351.893 145.919 367.646 153.748 383.494C160.06 396.265 165.634 409.415 172.378 421.954C184.507 444.525 201.408 463.408 219.954 480.878C221.755 482.575 223.8 484.05 225.844 485.441C235.802 492.238 245.77 499.002 255.78 505.725C267.223 513.407 280.058 517.98 293.292 521.046C311.185 525.198 329.224 523.449 347.074 520.077C355.883 518.412 364.566 516.052 373.365 514.281C382.353 512.469 391.362 510.709 400.435 509.445C411.478 507.896 422.689 507.316 432.889 502.058C435.587 500.667 438.895 500.204 441.224 498.412C447.494 493.586 453.595 488.486 459.359 483.07C463.447 479.224 466.83 474.619 470.655 470.478C471.877 469.151 473.816 468.434 474.88 467.022C477.588 463.439 479.99 459.635 482.519 455.916C487.303 448.866 490.169 441.069 490.622 432.608C491.191 422.007 491.381 411.396 491.508 400.785C491.602 392.419 490.338 384.179 487.883 376.17C483.246 361.007 476.218 346.824 468.958 332.841C451.993 300.144 434.206 267.89 413.775 237.206C407.969 228.481 401.235 220.315 394.407 212.338C387.843 204.667 378.991 202.043 369.034 203.076C361.163 203.887 356.442 208.155 355.104 215.984C353.46 225.657 353.934 235.172 357.201 244.561C365.788 269.313 375.367 293.664 385.988 317.605C386.473 318.7 386.473 320.334 386.03 321.461C383.87 326.972 381.731 332.515 379.128 337.825C375.735 344.738 373.786 351.935 373.586 359.606C373.238 372.704 372.88 385.812 372.648 398.92C372.511 406.739 372.627 414.568 372.627 422.618V422.566Z" stroke="white" stroke-width="4.992" mask="url(#path-2-outside-1_926_79636)"/>
<path d="M460.403 61.272C466.161 60.5468 470.598 63.2447 474.64 66.0679L475.442 66.6333C479.403 69.438 483.419 72.1488 487.609 74.5093L489.049 75.3306C503.861 83.899 516.513 94.9389 527.39 108.11C542.255 126.113 555.67 145.119 567.196 165.464C576.87 182.548 582.681 200.858 585.292 220.221H585.291C585.365 220.759 585.214 221.249 585.111 221.577C584.991 221.964 584.847 222.369 584.684 223L584.136 225.108L582.594 223.569L582.584 223.558L582.463 223.438L582.379 223.29C582.007 222.632 581.715 222.188 581.438 221.735C581.179 221.309 580.917 220.849 580.768 220.313L580.767 220.311C571.709 187.637 552.996 160.178 532.808 133.45V133.451C524.395 122.321 515.074 111.781 505.332 101.745V101.744C499.486 95.7319 492.21 91.2412 485.241 85.9478L485.24 85.9468C479.236 81.3752 473.222 76.8437 467.096 72.4829L467.095 72.4819C465.853 71.596 464.506 70.837 463.09 70.0503C461.694 69.2747 460.224 68.4685 458.844 67.5229C458.049 66.9799 457.414 66.2836 456.875 65.6304C456.288 64.9189 455.887 64.3607 455.362 63.7739L453.732 61.9526L456.163 61.7007C457.64 61.5475 458.993 61.4486 460.403 61.271V61.272Z" fill="white" stroke="white" stroke-width="2.496"/>
<path d="M432.401 115.062C433.378 114.811 434.463 114.73 435.385 114.854H435.387C436.374 114.989 437.278 115.437 438.045 115.925C438.816 116.415 439.541 117.008 440.15 117.508L440.154 117.511H440.153C455.135 129.886 468.312 143.975 479.896 159.55L480.666 160.607C488.497 171.58 492.24 183.995 493.551 197.943L493.085 197.986L493.557 198.05V198.061L492.525 198.108L493.513 198.375C493.299 199.167 493.159 199.971 492.878 201.124C492.62 202.184 492.277 203.366 491.735 204.483L491.733 204.487C490.907 206.181 489.42 207.194 487.801 207.354C486.182 207.513 484.549 206.806 483.485 205.32V205.319C483.177 204.889 483.106 204.42 483.094 204.085C483.081 203.751 483.124 203.416 483.157 203.172C483.196 202.89 483.226 202.701 483.239 202.511C483.252 202.327 483.237 202.252 483.233 202.237V202.235C483.031 201.497 482.731 200.78 482.395 199.96C482.111 199.268 481.803 198.505 481.583 197.694L481.494 197.344C476.766 177.164 464.634 161.366 450.832 146.345C444.942 139.938 438.856 133.803 432.846 127.433V127.432C431.626 126.143 429.906 124.488 429.152 122.5C428.814 121.612 428.682 120.513 428.743 119.501C428.802 118.523 429.056 117.382 429.724 116.572C430.393 115.761 431.46 115.303 432.401 115.062Z" fill="white" stroke="white" stroke-width="2.496"/>
<path d="M101.541 436.446C103.033 435.92 104.662 436.493 105.968 437.679C107.501 439.069 108.949 440.659 110.131 442.387C114.405 448.628 118.217 454.901 122.625 460.887C125.539 464.845 128.984 468.49 132.533 472.028H132.532C135.596 475.082 138.741 478.064 141.899 481.057C145.054 484.046 148.224 487.046 151.318 490.119H151.319C152.186 490.98 153.256 492.11 153.793 493.593C154.36 495.158 154.283 496.953 153.213 499.026L151.92 498.712L151.398 499.473C141.445 492.644 131.846 486.213 122.455 479.513C119.567 477.451 116.599 474.879 114.601 471.813L114.6 471.812C109.53 464.024 104.847 455.977 100.34 447.871V447.87C99.0907 445.617 98.8952 442.649 99.0479 440.293C99.1631 438.491 100.008 436.988 101.541 436.446Z" fill="white" stroke="white" stroke-width="2.496"/>
</svg>
